# xmcd
#
# Track frame offsets:
#	150
#	22194
#	53660
#	85268
#	114979
#	136221
#
# Disc length: 2120 seconds
#
# Revision: 1
# Processed by: cddbd v1.5.2PL0 Copyright (c) Steve Scherf et al.
# Submitted via: audiograbber 1.83.01
#
DISCID=46084606
DTITLE=Mark Radice - Ain't Nothing But A Party
DYEAR=1976
DGENRE=Disco
TTITLE0=The Whole Wide World Ain't Nothin' But A Party
TTITLE1=Here I Go Fallin' In Love Again
TTITLE2=If You Can't Beat 'Em, Join 'Em
TTITLE3=Monkey See Monkey Do
TTITLE4=The Answer Is You
TTITLE5=Exception To The Rule
EXTD=
EXTT0=
EXTT1=
EXTT2=
EXTT3=
EXTT4=
EXTT5=
PLAYORDER=
